<?xml version="1.0" encoding="iso-8859-1"?>
<!-- Generator: Adobe Illustrator 19.0.0, SVG Export Plug-In . SVG Version: 6.00 Build 0)  -->
<svg version="1.1" id="Layer_1" xmlns="http://www.w3.org/2000/svg" xmlns:xlink="http://www.w3.org/1999/xlink" x="0px" y="0px"
	 viewBox="0 0 512 512" style="enable-background:new 0 0 512 512;" xml:space="preserve">
<g>
	<g>
		<path fill="#b1da8b" d="M444.125,0H67.875c-4.427,0-8.017,3.589-8.017,8.017V179.04c0,4.427,3.589,8.017,8.017,8.017s8.017-3.589,8.017-8.017
			V58.789h360.217v368.234c0,38.015-30.928,68.944-68.944,68.944H75.891V213.244c0-4.427-3.589-8.017-8.017-8.017
			s-8.017,3.589-8.017,8.017v290.739c0,4.427,3.589,8.017,8.017,8.017h299.29c46.857,0,84.977-38.121,84.977-84.977V8.017
			C452.142,3.589,448.554,0,444.125,0z M436.109,42.756H75.891V16.033h360.217V42.756z"/>
	</g>
</g>
<g>
	<g>
		<path fill="#b1da8b" d="M409.921,68.409H102.079c-4.427,0-8.017,3.589-8.017,8.017v205.228c0,4.427,3.589,8.017,8.017,8.017h265.086
			c27.995,0,50.772-22.777,50.772-50.772V76.426C417.937,71.999,414.349,68.409,409.921,68.409z M401.904,238.898
			c0,19.155-15.583,34.739-34.739,34.739H110.096V84.443h291.808V238.898z"/>
	</g>
</g>
<g>
	<g>
		<path fill="#b1da8b" d="M332.96,152.852c4.428,0,8.017-3.589,8.017-8.017v-42.756c0-4.427-3.588-8.017-8.017-8.017H179.04
			c-4.427,0-8.017,3.589-8.017,8.017V256c0,4.427,3.589,8.017,8.017,8.017H332.96c4.428,0,8.017-3.589,8.017-8.017v-76.96
			c0-4.427-3.588-8.017-8.017-8.017c-4.428,0-8.017,3.589-8.017,8.017v68.944H187.056V110.096h137.887v34.739
			C324.944,149.262,328.532,152.852,332.96,152.852z"/>
	</g>
</g>
<g>
	<g>
		<path fill="#b1da8b" d="M204.693,342.046h-26.188v-26.188c0-4.427-3.589-8.017-8.017-8.017h-34.205c-4.427,0-8.017,3.589-8.017,8.017v26.188
			h-26.188c-4.427,0-8.017,3.589-8.017,8.017v34.205c0,4.427,3.589,8.017,8.017,8.017h26.188v26.188
			c0,4.427,3.589,8.017,8.017,8.017h34.205c4.427,0,8.017-3.589,8.017-8.017v-26.188h26.188c4.427,0,8.017-3.589,8.017-8.017
			v-34.205C212.71,345.635,209.12,342.046,204.693,342.046z M196.676,376.251h-26.188c-4.427,0-8.017,3.589-8.017,8.017v26.188
			h-18.171v-26.188c0-4.427-3.589-8.017-8.017-8.017h-26.188v-18.171h26.188c4.427,0,8.017-3.589,8.017-8.017v-26.188h18.171v26.188
			c0,4.427,3.589,8.017,8.017,8.017h26.188V376.251z"/>
	</g>
</g>
<g>
	<g>
		<path fill="#95d57c" d="M315.858,359.148c-18.566,0-33.67,15.105-33.67,33.67c0,18.566,15.104,33.67,33.67,33.67s33.67-15.105,33.67-33.67
			C349.528,374.253,334.424,359.148,315.858,359.148z M315.858,410.455c-9.725,0-17.637-7.912-17.637-17.637
			s7.912-17.637,17.637-17.637s17.637,7.912,17.637,17.637S325.583,410.455,315.858,410.455z"/>
	</g>
</g>
<g>
	<g>
		<path fill="#95d57c" d="M384.267,307.841c-18.566,0-33.67,15.104-33.67,33.67s15.105,33.67,33.67,33.67c18.566,0,33.67-15.105,33.67-33.67
			S402.833,307.841,384.267,307.841z M384.267,359.148c-9.725,0-17.637-7.912-17.637-17.637s7.912-17.637,17.637-17.637
			s17.637,7.912,17.637,17.637S393.992,359.148,384.267,359.148z"/>
	</g>
</g>
<g>
	<g>
		<path fill="#95d57c" d="M415.59,412.803l-17.102-17.102c-3.132-3.131-8.207-3.131-11.338,0s-3.131,8.207,0,11.337l17.102,17.102
			c1.565,1.566,3.617,2.348,5.668,2.348C416.93,426.489,420.528,417.742,415.59,412.803z"/>
	</g>
</g>
<g>
	<g>
		<path fill="#95d57c" d="M398.488,429.906l-17.102-17.102c-3.132-3.131-8.207-3.131-11.338,0c-3.131,3.131-3.131,8.207,0,11.337l17.102,17.102
			c1.565,1.566,3.617,2.348,5.668,2.348C399.828,443.591,403.426,434.844,398.488,429.906z"/>
	</g>
</g>
<g>
	<g>
		<path fill="#95d57c" d="M381.385,447.008l-17.102-17.102c-3.132-3.131-8.207-3.131-11.338,0c-3.131,3.131-3.131,8.207,0,11.337l17.102,17.102
			c1.565,1.566,3.617,2.348,5.668,2.348C382.726,460.693,386.324,451.946,381.385,447.008z"/>
	</g>
</g>
<g>
	<g>
		<path fill="#95d57c" d="M364.283,464.11l-17.102-17.102c-3.132-3.131-8.207-3.131-11.338,0c-3.131,3.131-3.131,8.207,0,11.337l17.101,17.102
			c3.261,3.26,8.766,3.041,11.764-0.46C367.395,471.85,367.201,467.028,364.283,464.11z"/>
	</g>
</g>
<g>
	<g>
		<path fill="#95d57c" d="M236.015,447.008c-3.13-3.131-8.207-3.131-11.337,0l-17.102,17.102c-2.919,2.918-3.113,7.74-0.427,10.877
			c2.998,3.501,8.502,3.721,11.763,0.46l17.102-17.102C239.146,455.214,239.146,450.138,236.015,447.008z"/>
	</g>
</g>
<g>
	<g>
		<path fill="#95d57c" d="M287.323,447.008c-3.132-3.131-8.207-3.131-11.339,0l-17.102,17.102c-2.918,2.918-3.113,7.74-0.425,10.877
			c2.998,3.502,8.503,3.72,11.764,0.46l17.102-17.102C290.454,455.214,290.454,450.138,287.323,447.008z"/>
	</g>
</g>
<g>
</g>
<g>
</g>
<g>
</g>
<g>
</g>
<g>
</g>
<g>
</g>
<g>
</g>
<g>
</g>
<g>
</g>
<g>
</g>
<g>
</g>
<g>
</g>
<g>
</g>
<g>
</g>
<g>
</g>
</svg>
